<?xml version="1.0" encoding="UTF-8" standalone="no"?>
<svg width="600" height="400" viewBox="0 0 600 400" xmlns="http://www.w3.org/2000/svg">
  <!-- Fond de l'interface -->
  <rect x="0" y="0" width="600" height="400" fill="#f9fafb"/>
  
  <!-- En-tête -->
  <rect x="0" y="0" width="600" height="60" fill="#ffffff" stroke="#e5e7eb" stroke-width="1"/>
  <text x="30" y="35" font-family="Arial" font-size="18" font-weight="bold" fill="#1f2937">Suivi des prospects</text>
  
  <!-- Boutons d'action -->
  <rect x="350" y="15" width="100" height="30" rx="5" ry="5" fill="#dbeafe"/>
  <text x="400" y="35" font-family="Arial" font-size="12" text-anchor="middle" fill="#1e40af">Exporter CSV</text>
  
  <rect x="460" y="15" width="100" height="30" rx="5" ry="5" fill="#f3f4f6"/>
  <text x="510" y="35" font-family="Arial" font-size="12" text-anchor="middle" fill="#374151">Aide</text>
  
  <!-- Filtres -->
  <rect x="20" y="70" width="560" height="50" fill="#ffffff" stroke="#e5e7eb" stroke-width="1" rx="5" ry="5"/>
  
  <text x="40" y="95" font-family="Arial" font-size="12" fill="#4b5563">Statut:</text>
  <rect x="80" y="80" width="120" height="30" rx="3" ry="3" fill="#f9fafb" stroke="#d1d5db" stroke-width="1"/>
  <text x="100" y="100" font-family="Arial" font-size="12" fill="#1f2937">Tous les statuts</text>
  
  <text x="220" y="95" font-family="Arial" font-size="12" fill="#4b5563">Liste:</text>
  <rect x="260" y="80" width="120" height="30" rx="3" ry="3" fill="#f9fafb" stroke="#d1d5db" stroke-width="1"/>
  <text x="280" y="100" font-family="Arial" font-size="12" fill="#1f2937">Toutes les listes</text>
  
  <rect x="480" y="80" width="80" height="30" rx="3" ry="3" fill="#4f46e5"/>
  <text x="520" y="100" font-family="Arial" font-size="12" text-anchor="middle" fill="#ffffff">Appliquer</text>
  
  <!-- Tableau des prospects -->
  <rect x="20" y="130" width="560" height="250" fill="#ffffff" stroke="#e5e7eb" stroke-width="1" rx="5" ry="5"/>
  
  <!-- En-tête du tableau -->
  <rect x="20" y="130" width="560" height="40" fill="#f3f4f6" rx="5" ry="5"/>
  <text x="50" y="155" font-family="Arial" font-size="12" font-weight="bold" fill="#374151">COMPTE INSTAGRAM</text>
  <text x="230" y="155" font-family="Arial" font-size="12" font-weight="bold" fill="#374151">LISTE</text>
  <text x="350" y="155" font-family="Arial" font-size="12" font-weight="bold" fill="#374151">STATUT</text>
  <text x="470" y="155" font-family="Arial" font-size="12" font-weight="bold" fill="#374151">ACTIONS</text>
  
  <!-- Lignes du tableau -->
  <!-- Ligne 1 -->
  <line x1="20" y1="170" x2="580" y2="170" stroke="#e5e7eb" stroke-width="1"/>
  <text x="50" y="190" font-family="Arial" font-size="12" fill="#1f2937">instagram_user1</text>
  <text x="230" y="190" font-family="Arial" font-size="12" fill="#4b5563">Entrepreneurs tech</text>
  
  <rect x="350" y="175" width="80" height="25" rx="12" ry="12" fill="#dbeafe"/>
  <text x="390" y="190" font-family="Arial" font-size="11" text-anchor="middle" fill="#1e40af">Contacté</text>
  
  <circle cx="470" cy="187" r="12" fill="#f3f4f6"/>
  <text x="470" y="191" font-family="Arial" font-size="12" text-anchor="middle" fill="#374151">+</text>
  
  <circle cx="500" cy="187" r="12" fill="#f3f4f6"/>
  <text x="500" y="191" font-family="Arial" font-size="12" text-anchor="middle" fill="#374151">↓</text>
  
  <circle cx="530" cy="187" r="12" fill="#f3f4f6"/>
  <text x="530" y="191" font-family="Arial" font-size="12" text-anchor="middle" fill="#374151">×</text>
  
  <!-- Ligne 2 -->
  <line x1="20" y1="210" x2="580" y2="210" stroke="#e5e7eb" stroke-width="1"/>
  <text x="50" y="230" font-family="Arial" font-size="12" fill="#1f2937">instagram_user2</text>
  <text x="230" y="230" font-family="Arial" font-size="12" fill="#4b5563">Prospects Instagram</text>
  
  <rect x="350" y="215" width="80" height="25" rx="12" ry="12" fill="#d1fae5"/>
  <text x="390" y="230" font-family="Arial" font-size="11" text-anchor="middle" fill="#065f46">Intéressé</text>
  
  <circle cx="470" cy="227" r="12" fill="#f3f4f6"/>
  <text x="470" y="231" font-family="Arial" font-size="12" text-anchor="middle" fill="#374151">+</text>
  
  <circle cx="500" cy="227" r="12" fill="#f3f4f6"/>
  <text x="500" y="231" font-family="Arial" font-size="12" text-anchor="middle" fill="#374151">↓</text>
  
  <circle cx="530" cy="227" r="12" fill="#f3f4f6"/>
  <text x="530" y="231" font-family="Arial" font-size="12" text-anchor="middle" fill="#374151">×</text>
  
  <!-- Ligne 3 -->
  <line x1="20" y1="250" x2="580" y2="250" stroke="#e5e7eb" stroke-width="1"/>
  <text x="50" y="270" font-family="Arial" font-size="12" fill="#1f2937">instagram_user3</text>
  <text x="230" y="270" font-family="Arial" font-size="12" fill="#4b5563">Entrepreneurs tech</text>
  
  <rect x="350" y="255" width="80" height="25" rx="12" ry="12" fill="#fef3c7"/>
  <text x="390" y="270" font-family="Arial" font-size="11" text-anchor="middle" fill="#92400e">À relancer</text>
  
  <circle cx="470" cy="267" r="12" fill="#f3f4f6"/>
  <text x="470" y="271" font-family="Arial" font-size="12" text-anchor="middle" fill="#374151">+</text>
  
  <circle cx="500" cy="267" r="12" fill="#f3f4f6"/>
  <text x="500" y="271" font-family="Arial" font-size="12" text-anchor="middle" fill="#374151">↓</text>
  
  <circle cx="530" cy="267" r="12" fill="#f3f4f6"/>
  <text x="530" y="271" font-family="Arial" font-size="12" text-anchor="middle" fill="#374151">×</text>
  
  <!-- Pagination -->
  <rect x="20" y="350" width="560" height="30" fill="#ffffff"/>
  <rect x="250" y="350" width="30" height="30" rx="3" ry="3" fill="#4f46e5"/>
  <text x="265" y="370" font-family="Arial" font-size="12" text-anchor="middle" fill="#ffffff">1</text>
  
  <rect x="290" y="350" width="30" height="30" rx="3" ry="3" fill="#f3f4f6"/>
  <text x="305" y="370" font-family="Arial" font-size="12" text-anchor="middle" fill="#374151">2</text>
  
  <rect x="330" y="350" width="30" height="30" rx="3" ry="3" fill="#f3f4f6"/>
  <text x="345" y="370" font-family="Arial" font-size="12" text-anchor="middle" fill="#374151">3</text>
</svg>
